<svg fill="none" height="16" viewBox="0 0 16 16" width="16" xmlns="http://www.w3.org/2000/svg"><g fill="#212121"><path d="m5.10878 5.55966-.76456-.98647c-.81266-1.04853-.06537-2.57319 1.26121-2.57319.32211 0 .63667.09748.90233.27963l2.10027 1.44002c.24756-.32295.55233-.66238.91045-.95311.52392-.42531 1.19412-.7715 1.98472-.76649 1.5439.00979 2.6568 1.21299 3.2422 2.02349.5723.79248.1146 1.77736-.6923 2.07316l-2.2324.81831-3.10604 4.48089c-.93757 1.3525-3.05408.4266-2.69707-1.18l.31284-1.40772-3.10574.87525c-1.11655.31466-2.22469-.52435-2.22469-1.68439v-2.83896c0-1.2108 1.63829-1.58661 2.16602-.49687l.60465 1.24858zm.02583-1.59907 1.02503 1.32253 1.04368-.27466c.29567-.07781.56875-.25021.80259-.48916l-2.06363-1.41491c-.09917-.068-.2166-.10439-.33685-.10439-.49522 0-.77419.56917-.47082.96059zm4.00225.74003c-.37912.57446-.94728 1.08235-1.67905 1.27492l-3.83056 1.00804c-.23118.06084-.47307-.05047-.57726-.26561l-.78399-1.6189c-.02223-.04591-.04665-.0618-.06443-.06953-.02278-.00992-.05574-.01443-.09287-.00591-.03714.00852-.06483.02694-.08102.0458-.01263.0147-.02768.03965-.02768.09065v2.83896c0 .49716.47492.85674.95344.72188l3.10574-.87525c.72806-.20518 1.41153.44103 1.24744 1.17944l-.31284 1.40779c-.119.5355.5865.8441.89902.3933l3.1963-4.611c.0587-.08468.1421-.14915.2388-.18461l2.381-.87279c.1409-.05167.2311-.15304.2683-.25478.0351-.09585.0271-.19757-.0425-.29398-.5619-.77792-1.4148-1.60252-2.4379-1.60901-.4824-.00305-.9341.20685-1.348.54289-.41453.33648-.75885.77421-1.01194 1.1577z"/><path d="m1.5 14c-.27614 0-.5.2239-.5.5s.22386.5.5.5h13c.2761 0 .5-.2239.5-.5s-.2239-.5-.5-.5z"/></g></svg>