<svg fill="none" height="24" viewBox="0 0 24 24" width="24" xmlns="http://www.w3.org/2000/svg"><path d="m6 20h16" stroke="#141b34" stroke-linecap="round" stroke-linejoin="round" stroke-width="1.5"/><path d="m2.8166 5.5536-.72508-.19171zm-.29478 1.11491.72509.19171zm11.89078 7.40019-.1966.7238zm5.2994 1.439-.1966.7238.0014.0004zm-14.28616-3.8793-.19654.7237zm3.12707.8491.19654-.7238zm-5.14363-8.30187.44361.60475v-.00001zm1.70734.06905-.19655.72378zm.93856.36927.50107-.55807h-.00001zm7.55732 9.58355.4129.6261zm-2.3322 1.5382.3709.6518c.0143-.0081.0283-.0167.042-.0257zm-1.54125.1924-.19654.7237zm-2.32298-.6308.19654-.7238zm-.25358-.8235.55967.4993zm1.48651-1.6663-.55967-.4993zm6.2522-4.32193-.063.74735zm-6.41741-.49662.05785-.74777zm-1.85511-1.61914.73372-.15542zm14.36592 8.07849.7461-.0766-.0007-.0058zm-18.90308-9.08641-.29478 1.11491 1.45017.38342.29478-1.11491zm12.12448 9.43061 5.2994 1.439.3931-1.4476-5.2994-1.439zm-8.9867-2.4404 3.12706.8492.39309-1.4476-3.12707-.8491zm-1.68761-6.60679c.10777-.40761.17309-.64995.24026-.82065.06118-.15544.08987-.15817.07094-.14428l-.88721-1.20949c-.30222.22169-.46675.5179-.57952.80445-.10678.27131-.19615.61405-.29464.98655zm1.37838-.77685c.2644.0718.41649.11378.52751.1546.05017.01844.07744.03163.09186.0396.00683.00377.01054.00626.01216.0074.00152.00107.00216.00163.00252.00195l1.00212-1.11613c-.18737-.16824-.39163-.26737-.59107-.34069-.18661-.06861-.41247-.12926-.65201-.1943zm-3.12333 1.50834c-.23706.89662-.43593 1.64239-.51176 2.25421-.07866.63458-.04118 1.23374.2873 1.79479l1.29444-.75794c-.0968-.16534-.15069-.38801-.09314-.85233.06038-.48709.22532-1.1173.47333-2.05531zm3.82564 4.4278c-.94719-.2572-1.58535-.4321-2.04546-.6251-.44071-.1848-.6125-.34477-.7102-.51164l-1.29444.75794c.32758.5595.83195.8885 1.42457 1.137.57323.2404 1.3256.4431 2.23245.6893zm7.57722 2.6668-2.3323 1.5382.8259 1.2522 2.3322-1.5382zm-3.264 1.6329-2.32299-.6308-.39309 1.4475 2.32299.6308zm-2.21344-.2312 1.4865-1.6663-1.11933-.9986-1.48651 1.6663zm-.10955-.3996c.15384.0417.24442.2484.10955.3996l-1.11934-.9986c-.6328.7094-.26806 1.8063.6167 2.0465zm3.29669.5104c-.2912.1657-.6414.2106-.9737.1204l-.39309 1.4475c.71079.193 1.46939.0996 2.10869-.2643zm4.0549-7.34568c-2.1408-.18045-4.2908-.33212-6.42256-.49704l-.1157 1.49553c2.14616.16603 4.27746.31627 6.41226.49621zm-9.65104-4.21733c-.18132-.04924-.59387-.18861-.94979-.24194-.38717-.05802-.92002-.05845-1.39769.29194l.88721 1.20948c.01735-.01272.07635-.04973.2882-.01798.24309.03642.43671.11313.77898.20607zm2.04924 2.6935c-.02402-.11338-.04359-.24269-.07047-.41309-.02526-.16009-.056-.34922-.09981-.53845-.08237-.35582-.23899-.85062-.63587-1.20697l-1.00213 1.11613c.03844.03452.11026.14239.17665.42915.03057.13206.05429.27421.07948.43388.02356.14936.05042.32831.08471.49019zm1.17924 1.02679c-.63329-.04899-.80046-.13415-.8696-.19385-.06636-.0573-.17739-.20859-.30964-.83294l-1.46744.31084c.13454.63518.31854 1.24452.79678 1.65745.47545.41051 1.10243.50516 1.7342.55403zm13.19836 7.12472c-.391-3.5403-3.2704-6.33223-6.7758-6.62768l-.126 1.4947c2.7896.23511 5.0984 2.46838 5.4109 5.29768zm-2.2232 1.866c1.119.3016 2.3568-.5651 2.2239-1.8602l-1.4922.1531c.0087.0849-.0222.1524-.0869.2041-.0712.0569-.1662.0785-.2545.0547zm-11.16044-3.0306c-.40386-.1097-.53171-.5964-.26703-.8931l1.11933.9986c.46418-.5204.23199-1.3654-.45921-1.5531zm6.25274.1436c-.4811-.1306-.9939-.0476-1.4095.2265l.8258 1.2522c.0575-.0379.1265-.0485.1906-.0311z" fill="#141b34"/></svg>