<svg height="400" viewBox="0 0 400 400.00001" width="400" fill="#4c3398" xmlns="http://www.w3.org/2000/svg"><path d="m200 652.36212c-110.308898 0-200.0000015 89.6911-200.0000015 200 0 110.30887 89.6911035 200.00008 200.0000015 200.00008 110.3089 0 200-89.69121 200-200.00008 0-110.3089-89.6911-200-200-200zm0 25c19.9141 0 39.0365 3.31731 56.8574 9.418 6.2126 52.1386-16.3286 52.92291-37.6582 95.582-80.3081 160.61617 107.9591 21.6347 118.5704 42.8574 32.1641 64.32821-42.0639 102.05137-6.7891 143.29888-14.5614 16.4138-32.1621 30.065-51.9375 40.0704-33.2941-29.2893-56.2731-29.3434-70.4844 18.5644-2.8362.136-5.6881.209-8.5586.209-20.9363 0-41.0003-3.6633-59.5937-10.3769 32.4331-30.3705 4.6797-128.56247-19.7793-177.48057-13.887-27.7739 55.5105-106.1216 37.1426-142.8574-3.3727-6.7452-9.3329-9.383-16.9161-9.0625 18.4683-6.6117 38.3772-10.2227 59.1465-10.2227zm-170.333999 134.6426c23.1588 39.0857 82.922399 77.53061 15.2461 117.49997-.4809.5246-.8804 1.09811-1.2402 1.6934-11.9418-23.68047-18.6719-50.45647-18.6719-78.83597 0-13.8958 1.619201-27.4043 4.666-40.3574z" transform="translate(0 -652.36216)"/></svg>